<svg preserveAspectRatio="xMidYMid meet" viewBox="0 0 300.000000 300.000000" height="300.000000pt" width="300.000000pt" xmlns="http://www.w3.org/2000/svg" version="1.0">
  <metadata>
    Created by potrace 1.11, written by Peter Selinger 2001-2013
  </metadata>
  <g fill="#6F857D" stroke="none" transform="translate(0.000000,300.000000) scale(0.100000,-0.100000)">
    <path fill="#0FCBFA" d="M1480 2432 c-18 -15 -21 -24 -15 -50 3 -18 13 -32 21 -32 8 0 14 -4
14 -10 0 -6 9 -6 25 0 14 5 25 6 25 2 1 -4 7 8 15 26 13 30 13 36 -1 58 -19
29 -53 31 -84 6z"></path>
    <path fill="#EA0F0B" d="M318 2286 c-23 -17 -27 -51 -9 -74 l16 -22 646 -1 c672 -1 693 -2
799 -44 47 -19 100 -52 112 -70 4 -5 8 -7 8 -2 0 13 70 -56 105 -103 53 -72
87 -141 99 -203 13 -61 28 -78 71 -82 16 -1 45 36 45 58 0 32 -20 97 -51 165
-16 34 -30 66 -31 70 -3 7 -25 35 -45 57 -7 8 -13 16 -13 19 0 15 -120 118
-169 146 -14 8 -29 20 -33 25 -4 6 -8 6 -8 1 0 -4 -11 -1 -24 7 -20 14 -82 35
-157 54 -46 11 -1345 11 -1361 -1z"></path>
    <path d="M420 2105 c-20 -22 -20 -59 0 -79 7 -7 106 -11 295 -11 259 0 285 -2
285 -17 0 -9 -4 -18 -8 -20 -18 -7 -73 -133 -76 -173 -1 -6 -58 -11 -143 -13
l-143 -3 -14 -27 c-7 -15 -11 -35 -7 -45 9 -24 58 -50 65 -34 3 8 5 9 5 1 1
-8 14 -9 41 -4 22 4 40 4 40 0 0 -4 18 -4 40 0 22 4 40 4 40 0 0 -4 18 -4 40
0 21 4 41 4 42 0 2 -4 18 -3 37 4 32 10 36 17 63 100 17 52 47 117 73 155 44
67 115 141 135 141 5 0 10 5 10 10 0 6 7 10 15 10 18 0 20 16 3 26 -7 5 -8 3
-3 -6 6 -10 4 -11 -6 -4 -8 5 -193 9 -412 9 -388 0 -399 -1 -417 -20z"></path>
    <path fill="#0FCBFA" d="M1426 2115 c-25 -8 -32 -16 -34 -41 -5 -46 17 -58 113 -60 111 -2
150 -10 218 -46 61 -33 116 -88 158 -160 30 -50 57 -63 88 -41 39 27 24 80
-49 173 -19 25 -44 53 -55 62 -31 28 -115 79 -115 70 0 -4 -4 -2 -8 3 -24 35
-245 63 -316 40z"></path>
    <path fill="black" d="M1168 1639 c-7 -4 -16 -6 -20 -3 -4 3 -18 -1 -30 -8 -13 -7 -26 -11
-30 -10 -5 1 -8 -3 -8 -9 0 -5 -4 -8 -8 -5 -12 7 -73 -52 -101 -96 -12 -21
-19 -38 -16 -38 4 0 2 -6 -4 -14 -13 -16 -19 -96 -8 -113 5 -7 6 -13 2 -13
-10 0 35 -79 58 -101 88 -85 248 -81 348 9 30 26 71 86 76 109 2 7 4 19 6 26
1 6 6 17 10 23 3 6 4 14 0 17 -3 4 -7 24 -8 45 -1 21 -9 51 -18 68 -19 37 -65
84 -83 84 -8 0 -14 5 -14 11 0 5 -3 8 -7 6 -5 -3 -19 0 -33 6 -31 12 -96 16
-112 6z m128 -156 c7 -10 10 -21 8 -25 -2 -4 0 -9 6 -13 6 -4 8 -10 6 -14 -3
-4 -7 -20 -10 -36 -3 -16 -11 -32 -18 -37 -7 -4 -9 -8 -4 -8 14 0 -36 -41 -64
-52 -33 -12 -90 -16 -90 -6 0 4 -7 8 -15 8 -18 0 -43 37 -48 70 -5 30 11 80
25 80 5 0 7 4 3 9 -7 13 43 47 85 59 40 10 94 -6 116 -35z"></path>
    <path fill="black" d="M1945 1642 c-3 -3 -13 -6 -23 -7 -63 -6 -154 -79 -188 -150 -29 -62
-25 -158 9 -211 44 -70 112 -106 199 -105 63 0 126 21 163 53 59 50 74 66 68
72 -4 3 0 6 7 6 7 0 11 2 8 6 -3 3 2 21 12 41 11 23 16 53 14 84 -3 56 -24
120 -36 113 -4 -3 -8 0 -8 6 0 26 -72 75 -130 88 -29 6 -90 9 -95 4z m126
-165 c31 -53 11 -120 -50 -161 -74 -51 -161 -30 -176 43 -2 9 -4 21 -6 26 -5
17 27 79 52 102 55 49 146 44 180 -10z"></path>
    <path d="M796 1631 c-3 -5 -15 -7 -26 -4 -28 7 -60 -23 -60 -56 0 -44 34 -55
162 -52 43 1 50 4 73 38 14 21 25 34 25 30 0 -4 9 2 20 13 11 11 20 22 20 24
0 3 -27 5 -60 5 -32 0 -64 2 -69 5 -5 3 -12 0 -14 -6 -4 -10 -8 -10 -15 1 -7
9 -11 10 -17 2 -5 -9 -10 -9 -20 -1 -8 7 -15 7 -19 1z"></path>
    <path d="M1382 1610 c7 -11 19 -20 27 -20 8 0 12 -3 8 -6 -3 -4 0 -13 8 -21 8
-8 18 -21 23 -29 7 -12 31 -15 126 -15 111 0 119 1 134 22 8 12 31 37 51 56
l35 33 -212 0 c-210 0 -212 0 -200 -20z"></path>
    <path d="M2150 1624 c0 -4 8 -14 18 -23 10 -9 28 -31 41 -48 14 -21 31 -33 44
-33 52 1 78 57 43 93 -15 14 -146 25 -146 11z"></path>
    <path fill="#0FCBFA" d="M420 1010 c0 -17 14 -58 45 -135 4 -11 9 -24 11 -30 2 -10 50 -138
61 -165 3 -8 5 -19 4 -23 -1 -5 3 -7 10 -5 6 2 26 44 45 93 19 50 40 100 46
113 12 24 26 19 31 -13 1 -11 5 -24 9 -30 3 -5 21 -48 39 -95 l32 -85 11 32
c6 17 14 35 19 39 4 4 7 14 7 22 0 8 6 28 13 45 25 58 58 142 61 152 1 6 9 29
16 53 7 23 11 44 8 47 -9 9 -58 -14 -63 -30 -9 -29 -12 -40 -14 -48 0 -4 -7
-20 -15 -36 -9 -16 -12 -31 -9 -35 4 -3 2 -6 -4 -6 -6 0 -14 -16 -17 -35 -5
-24 -11 -32 -21 -29 -8 3 -14 9 -13 12 0 4 -1 10 -2 15 -1 4 -3 10 -5 15 -1 4
-5 16 -9 27 -4 11 -12 34 -18 50 -26 76 -54 122 -55 92 -2 -20 -27 -82 -38
-89 -5 -4 -6 -10 -2 -14 4 -4 2 -13 -4 -21 -6 -7 -8 -13 -5 -13 4 0 0 -10 -8
-22 -9 -12 -16 -30 -16 -40 0 -38 -19 -15 -41 50 -13 37 -22 70 -21 75 1 4 -2
7 -8 7 -5 0 -10 8 -10 18 0 26 -21 52 -47 57 -17 3 -23 -1 -23 -15z"></path>
    <path fill="#0FCBFA" d="M1026 976 c-14 -31 -25 -59 -26 -61 0 -3 -9 -21 -20 -40 -11 -20 -20
-42 -20 -50 0 -8 -4 -15 -8 -15 -4 0 -14 -17 -21 -37 -8 -21 -17 -40 -20 -43
-10 -9 -29 -69 -23 -74 3 -3 15 -6 28 -6 16 0 27 11 42 44 25 51 29 53 107 52
l60 -1 23 -47 c19 -41 26 -48 52 -48 17 0 30 2 30 5 0 2 -14 35 -31 72 -63
136 -72 158 -71 166 1 4 -2 7 -6 7 -4 0 -14 17 -21 37 -8 20 -22 50 -32 67
l-18 29 -25 -57z m44 -106 c0 -10 4 -20 10 -22 5 -1 11 -14 12 -28 2 -18 -1
-24 -12 -21 -8 2 -27 3 -42 2 -33 -2 -33 -4 -8 54 19 45 40 53 40 15z"></path>
    <path fill="#0FCBFA" d="M1293 1022 c-13 -2 -23 -11 -24 -20 -1 -22 -1 -312 0 -335 1 -14 8
-18 29 -15 l27 3 3 179 c1 99 -1 182 -5 186 -5 3 -18 4 -30 2z"></path>
    <path fill="#0FCBFA" d="M1373 1002 c-7 -30 -4 -32 48 -35 l44 -2 5 -155 5 -155 28 -3 c31 -4
28 -23 30 183 2 144 -4 131 70 134 25 1 28 5 25 28 l-3 27 -123 0 c-120 1
-123 0 -129 -22z"></path>
    <path fill="#0FCBFA" d="M1690 1018 c-18 -7 -19 -19 -17 -185 l2 -178 85 -2 c106 -2 122 2
118 30 -3 20 -11 23 -73 27 l-69 5 -3 47 c-2 27 2 50 8 54 7 4 38 7 70 8 65 1
74 6 65 34 -9 26 -32 35 -57 21 -14 -7 -24 -7 -33 0 -9 7 -16 7 -23 0 -13 -13
-20 -3 -27 35 -9 48 0 55 69 53 72 -1 80 2 72 35 -6 22 -11 23 -87 23 -45 0
-90 -3 -100 -7z"></path>
    <path fill="#0FCBFA" d="M1951 1015 c-4 -5 -7 -89 -7 -185 1 -160 3 -175 19 -178 34 -7 44 14
42 88 -1 38 0 70 2 70 8 0 52 -56 53 -67 0 -6 4 -13 8 -15 4 -1 21 -20 36 -40
21 -29 36 -38 57 -38 16 0 29 4 29 8 0 5 -25 41 -55 81 -52 69 -60 91 -31 91
25 0 50 40 50 80 0 49 -19 86 -53 99 -37 15 -140 19 -150 6z m130 -62 c4 -4 9
-19 11 -32 4 -29 -37 -63 -67 -55 -19 5 -22 22 -16 91 1 13 58 10 72 -4z"></path>
    <path fill="#0FCBFA" d="M2355 1022 c-4 -4 -10 -7 -13 -7 -22 0 -81 -50 -101 -86 -72 -128 29
-292 174 -284 51 3 95 15 95 26 0 5 4 9 10 9 5 0 19 8 30 18 58 48 73 167 31
235 -36 58 -91 90 -161 93 -32 2 -61 0 -65 -4z m98 -56 c8 8 89 -75 82 -86 -3
-5 -1 -11 4 -14 14 -9 3 -66 -20 -103 -26 -41 -72 -64 -121 -59 -139 14 -159
213 -25 259 25 8 49 11 58 6 9 -5 19 -6 22 -3z"></path>
  </g>
</svg>
